<?xml version="1.0" encoding="UTF-8"?>
<svg id="Layer_1" data-name="Layer 1" xmlns="http://www.w3.org/2000/svg" version="1.1" viewBox="0 0 595.28 841.89">
  <defs>
    <style>
      .cls-1 {
        fill: #231f20;
      }

      .cls-1, .cls-2, .cls-3 {
        stroke-width: 0px;
      }

      .cls-2 {
        fill: #808285;
      }

      .cls-3 {
        fill: #f4bfb8;
      }
    </style>
  </defs>
  <ellipse class="cls-2" cx="295" cy="367.06" rx="274.02" ry="281.83"/>
  <ellipse class="cls-2" cx="295" cy="67.75" rx="36.35" ry="41.39"/>
  <ellipse class="cls-2" cx="254.19" cy="76.4" rx="27.62" ry="28.51"/>
  <path class="cls-3" d="M274.53,69.03c3.95,9.06.03,19.7-8.74,23.78-8.77,4.07-19.08.03-23.03-9.02-3.95-9.06-.03-19.7,8.74-23.78,8.77-4.07,19.08-.03,23.03,9.02Z"/>
  <path class="cls-2" d="M331.35,67.75"/>
  <path class="cls-2" d="M326.69,47.47"/>
  <ellipse class="cls-1" cx="316.87" cy="47.89" rx="9.82" ry="10.14"/>
  <polyline class="cls-3" points="294.39 639.64 307.49 669.27 344.9 753.91 345.37 821.58 295.99 829.87 169.88 806.44 19.67 750.28 12.57 734.23 43.33 734.72 94.01 758.44 160.37 770.36 283.79 796.82 318.83 799.71 330.88 757.87 288.38 649.09"/>
  <ellipse class="cls-2" cx="338.7" cy="85.22" rx="27.62" ry="28.51"/>
  <path class="cls-3" d="M354.58,77.85c3.95,9.06.03,19.7-8.74,23.78-8.77,4.07-19.08.03-23.03-9.02-3.95-9.06-.03-19.7,8.74-23.78s19.08-.03,23.03,9.02Z"/>
  <ellipse class="cls-1" cx="271.99" cy="46.57" rx="9.82" ry="10.14"/>
  <path class="cls-2" d="M315.73,34.72c1.96-24.47-10.88-34.61-21.21-30.12-7.85,3.41-16.09,16.09-20.45,29.95"/>
</svg>