<?xml version="1.0" encoding="UTF-8"?>
<svg id="Layer_1" data-name="Layer 1" xmlns="http://www.w3.org/2000/svg" version="1.1" viewBox="0 0 595.28 841.89">
  <defs>
    <style>
      .cls-1 {
        fill: #231f20;
      }

      .cls-1, .cls-2, .cls-3 {
        stroke-width: 0px;
      }

      .cls-2 {
        fill: #808285;
      }

      .cls-3 {
        fill: #f4bfb8;
      }
    </style>
  </defs>
  <ellipse class="cls-2" cx="328.89" cy="400.36" rx="91.2" ry="96.76"/>
  <ellipse class="cls-2" cx="330.16" cy="297.6" rx="12.88" ry="14.21"/>
  <circle class="cls-2" cx="315.69" cy="300.57" r="9.79"/>
  <circle class="cls-3" cx="317.27" cy="300.57" r="6.17"/>
  <path class="cls-2" d="M343.04,297.6"/>
  <path class="cls-2" d="M341.39,290.64"/>
  <circle class="cls-1" cx="337.91" cy="290.78" r="3.48"/>
  <polyline class="cls-3" points="327.31 493.1 332.06 503.57 345.65 533.48 344.29 558.04 323.6 562.15 271.79 556.45 210.73 539.4 208.15 533.72 220.91 533.22 241.4 540.7 268.67 543.56 319.3 550.42 333.77 550.69 339.74 535.23 324.59 496.66"/>
  <circle class="cls-2" cx="345.65" cy="303.6" r="9.79"/>
  <circle class="cls-3" cx="345.65" cy="303.6" r="6.17"/>
  <circle class="cls-1" cx="322" cy="290.33" r="3.48"/>
  <path class="cls-2" d="M337.51,286.26c.69-8.4-3.86-11.88-7.52-10.34-2.78,1.17-5.7,5.52-7.25,10.28"/>
</svg>